<?xml version="1.0" standalone="no"?>
<!DOCTYPE svg PUBLIC "-//W3C//DTD SVG 20010904//EN"
 "http://www.w3.org/TR/2001/REC-SVG-20010904/DTD/svg10.dtd">
<svg version="1.0" xmlns="http://www.w3.org/2000/svg"
 width="800.000000pt" height="800.000000pt" viewBox="0 0 800.000000 800.000000"
 preserveAspectRatio="xMidYMid meet">

<g transform="translate(0.000000,800.000000) scale(0.100000,-0.100000)"
fill="#000000" stroke="none">
<path d="M3837 7894 c-244 -59 -440 -251 -508 -499 -18 -68 -21 -96 -16 -204
3 -69 8 -137 12 -151 6 -24 -27 -44 -791 -485 -439 -253 -801 -462 -806 -463
-4 -2 -29 15 -55 38 -123 108 -260 161 -433 168 -139 5 -219 -11 -335 -68
-184 -89 -314 -253 -366 -459 -17 -69 -20 -104 -16 -190 8 -186 73 -336 198
-460 85 -86 171 -136 312 -184 16 -6 17 -57 15 -938 l-3 -932 -52 -18 c-93
-31 -176 -82 -250 -153 -230 -218 -286 -529 -146 -816 39 -79 60 -109 132
-180 69 -69 103 -94 171 -127 124 -61 204 -77 347 -70 93 4 134 10 195 32 85
29 183 87 240 142 l37 36 128 -74 c1559 -897 1484 -852 1478 -879 -4 -14 -9
-77 -12 -142 -7 -143 11 -234 67 -346 75 -148 180 -250 328 -319 107 -50 195
-66 327 -60 119 6 198 26 295 78 164 87 294 253 340 435 25 95 27 254 5 338
-9 33 -14 60 -13 61 2 1 363 210 802 463 l799 461 57 -52 c71 -65 148 -111
242 -145 66 -23 87 -26 218 -27 134 0 151 2 227 28 227 78 410 284 459 517 21
98 14 249 -16 345 -66 211 -233 383 -443 454 l-52 18 -3 932 c-2 881 -1 932
15 938 142 48 227 99 312 184 126 126 190 275 198 460 6 127 -16 232 -74 349
-56 111 -188 241 -303 297 -124 60 -204 77 -347 71 -99 -4 -131 -10 -199 -35
-89 -34 -171 -82 -234 -139 -33 -30 -45 -36 -58 -28 -9 6 -372 215 -805 465
-757 436 -788 455 -782 479 3 14 9 77 12 142 4 89 1 134 -12 192 -20 92 -78
210 -140 288 -87 109 -244 204 -383 234 -84 17 -239 17 -315 -2z m-321 -1179
c5 -19 -2100 -3650 -2116 -3650 -13 0 -15 113 -18 936 l-2 936 32 7 c18 4 71
25 118 48 121 60 240 179 298 298 72 147 95 290 69 434 l-14 79 36 21 c373
220 1570 905 1580 903 8 -1 15 -6 17 -12z m1777 -436 c430 -248 791 -457 803
-464 20 -13 20 -15 7 -92 -27 -147 -1 -301 75 -448 55 -107 183 -230 293 -284
46 -22 99 -44 117 -47 l32 -7 -2 -936 c-3 -813 -5 -936 -18 -936 -16 0 -2123
3642 -2114 3656 3 5 10 9 15 9 5 0 362 -203 792 -451z m-1370 250 c57 -8 98
-8 160 1 45 7 90 13 99 14 13 1 283 -460 1068 -1818 577 -1000 1050 -1822
1050 -1826 0 -5 -20 -32 -45 -61 -57 -67 -97 -137 -127 -223 l-23 -66 -2105 0
-2105 0 -23 68 c-29 80 -82 171 -135 229 -28 30 -37 48 -33 60 4 10 478 834
1054 1831 926 1604 1049 1812 1067 1807 11 -3 55 -10 98 -16z m2193 -4324 c4
-14 5 -28 3 -30 -2 -2 -363 -211 -802 -464 l-799 -461 -53 48 c-257 228 -637
238 -904 22 -53 -44 -67 -50 -85 -42 -29 13 -1568 902 -1583 914 -6 5 -9 16
-6 24 4 12 297 14 2114 14 l2109 0 6 -25z"/>
</g>
</svg>
