<?xml version="1.0" standalone="no"?>
<!DOCTYPE svg PUBLIC "-//W3C//DTD SVG 20010904//EN"
 "http://www.w3.org/TR/2001/REC-SVG-20010904/DTD/svg10.dtd">
<svg version="1.0" xmlns="http://www.w3.org/2000/svg"
 width="225.000000pt" height="225.000000pt" viewBox="0 0 225.000000 225.000000"
 preserveAspectRatio="xMidYMid meet">

<g transform="translate(0.000000,225.000000) scale(0.100000,-0.100000)"
fill="#000000" stroke="none">
<path d="M0 1125 l0 -1125 1125 0 1125 0 0 1125 0 1125 -1125 0 -1125 0 0
-1125z m647 286 c49 -23 79 -73 85 -141 l3 -45 -68 -3 -67 -3 -6 31 c-8 39
-38 56 -71 41 -63 -29 -120 -254 -79 -316 21 -31 57 -33 90 -2 34 30 44 67 18
67 -28 0 -30 5 -18 60 l10 50 113 0 c73 0 113 -4 113 -11 0 -5 -5 -30 -11 -55
-9 -33 -16 -44 -31 -44 -10 0 -21 -8 -24 -17 -14 -46 -46 -104 -74 -136 -64
-74 -191 -89 -265 -32 -53 40 -69 84 -69 185 2 267 175 450 351 371z m396 10
c40 -15 74 -54 86 -96 20 -74 19 -75 -59 -75 -61 0 -70 2 -70 18 0 43 -53 57
-71 19 -15 -32 -1 -62 65 -135 60 -67 71 -92 70 -163 -2 -98 -77 -169 -179
-169 -94 0 -155 48 -163 130 l-5 50 66 0 c65 0 65 0 72 -31 6 -25 11 -30 33
-27 23 3 27 8 30 38 3 37 -3 46 -92 157 -64 79 -57 185 17 248 21 19 49 36 61
38 41 8 115 7 139 -2z m453 -285 c1 -154 0 -286 -3 -293 -4 -9 -27 -13 -75
-13 l-70 0 4 35 4 35 -71 0 c-71 0 -71 0 -86 -32 -14 -32 -15 -33 -88 -36 -57
-2 -72 0 -68 10 7 18 151 338 186 413 15 33 38 84 51 113 l24 53 95 -3 96 -3
1 -279z m337 273 c85 -21 120 -72 120 -172 0 -83 -21 -142 -73 -201 -50 -56
-101 -78 -200 -85 l-85 -6 33 -18 c22 -12 32 -25 32 -41 0 -50 -8 -56 -77 -56
l-66 0 6 38 c3 20 18 84 32 142 14 58 37 157 50 220 14 63 30 132 36 153 l10
37 70 0 c39 0 89 -5 112 -11z m26 -552 c0 -9 -2 -8 -6 1 -2 6 -10 9 -15 6 -7
-4 -8 -2 -4 5 9 13 26 5 25 -12z"/>
<path d="M1351 1239 c-5 -13 -25 -64 -45 -113 -20 -50 -36 -91 -36 -93 0 -2
20 -3 43 -3 l44 0 7 111 c7 115 3 140 -13 98z"/>
<path d="M1680 1296 c0 -2 15 -14 34 -25 l34 -21 -20 -80 c-12 -45 -18 -84
-14 -87 15 -16 62 14 80 51 50 103 26 166 -64 166 -27 0 -50 -2 -50 -4z"/>
</g>
</svg>
