<?xml version="1.0" standalone="no"?>
<!DOCTYPE svg PUBLIC "-//W3C//DTD SVG 20010904//EN"
 "http://www.w3.org/TR/2001/REC-SVG-20010904/DTD/svg10.dtd">
<svg version="1.0" xmlns="http://www.w3.org/2000/svg"
 width="310.000000pt" height="162.000000pt" viewBox="0 0 310.000000 162.000000"
 preserveAspectRatio="xMidYMid meet">

<g transform="translate(0.000000,162.000000) scale(0.100000,-0.100000)"
fill="#000000" stroke="none">
<path d="M780 810 l0 -150 25 0 c24 0 24 0 27 117 l3 117 93 -117 c82 -102 98
-117 124 -117 16 0 28 4 26 8 -1 5 -55 72 -118 150 -105 131 -117 142 -147
142 l-33 0 0 -150z"/>
<path d="M1090 810 l0 -150 135 0 c128 0 135 1 135 20 0 18 -8 20 -107 22
l-108 3 0 40 0 40 88 3 c85 3 88 4 85 25 -3 21 -9 22 -91 25 l-88 3 3 37 3 37
108 3 c99 2 107 4 107 22 0 19 -7 20 -135 20 l-135 0 0 -150z"/>
<path d="M1440 954 c0 -3 53 -70 117 -150 110 -135 119 -144 152 -144 31 0 33
1 20 18 -8 9 -36 43 -62 74 l-48 57 60 73 60 73 -32 3 c-23 3 -36 -2 -50 -20
-11 -13 -30 -36 -43 -53 l-25 -30 -47 53 c-35 39 -54 52 -74 52 -16 0 -28 -3
-28 -6z"/>
<path d="M1810 941 c0 -17 8 -20 53 -23 l52 -3 3 -127 3 -128 24 0 25 0 0 130
0 130 50 0 c43 0 50 3 50 20 0 19 -7 20 -130 20 -122 0 -130 -1 -130 -19z"/>
<path d="M2178 733 c-3 -58 -6 -61 -42 -47 -14 5 -17 3 -14 -7 3 -8 18 -14 39
-14 l34 0 3 63 c2 36 -1 62 -7 62 -6 0 -11 -26 -13 -57z"/>
<path d="M2246 777 c-27 -20 -16 -50 22 -61 33 -9 43 -30 18 -39 -7 -3 -24 1
-36 10 -20 14 -22 14 -18 -3 2 -15 12 -19 43 -19 36 0 40 3 43 27 3 22 -2 28
-32 38 -20 6 -36 16 -36 21 0 16 29 22 45 9 20 -17 32 -5 15 15 -15 18 -40 19
-64 2z"/>
<path d="M1485 728 c-58 -75 -58 -75 -22 -70 22 2 44 17 69 45 35 38 36 42 21
59 -9 10 -19 18 -22 18 -3 -1 -24 -24 -46 -52z"/>
<path d="M2080 670 c0 -5 5 -10 10 -10 6 0 10 5 10 10 0 6 -4 10 -10 10 -5 0
-10 -4 -10 -10z"/>
</g>
</svg>
