<?xml version="1.0" standalone="no"?>
<!DOCTYPE svg PUBLIC "-//W3C//DTD SVG 20010904//EN"
 "http://www.w3.org/TR/2001/REC-SVG-20010904/DTD/svg10.dtd">
<svg version="1.0" xmlns="http://www.w3.org/2000/svg"
 width="724.000000pt" height="366.000000pt" viewBox="0 0 724.000000 366.000000"
 preserveAspectRatio="xMidYMid meet">

<g transform="translate(0.000000,366.000000) scale(0.100000,-0.100000)"
fill="#000000" stroke="none">
<path d="M334 3375 c-16 -11 -17 -18 -6 -61 6 -27 94 -384 195 -794 102 -410
271 -1093 376 -1519 105 -426 196 -780 202 -788 6 -7 18 -13 25 -13 15 0 2338
2231 2347 2253 3 8 2 20 -3 27 -6 9 -2067 610 -3052 889 -55 16 -70 17 -84 6z
m708 -262 c14 -6 -31 -54 -223 -238 -132 -126 -243 -229 -247 -228 -6 2 -161
613 -162 639 0 10 579 -149 632 -173z m461 -130 c166 -47 306 -89 310 -93 4
-4 -98 -109 -228 -235 -129 -125 -237 -226 -240 -224 -11 11 -161 639 -153
639 6 0 146 -39 311 -87z m-310 -249 c43 -174 76 -319 74 -321 -5 -4 -603 165
-624 176 -8 4 74 90 224 234 131 125 240 227 243 227 3 0 41 -142 83 -316z
m1067 31 c162 -47 303 -88 313 -93 15 -6 -24 -48 -218 -235 -130 -125 -240
-227 -244 -227 -3 0 -39 134 -79 298 -40 163 -75 307 -78 320 -4 12 -2 22 3
22 4 0 141 -38 303 -85z m-375 43 c3 -13 38 -157 79 -320 40 -164 71 -298 68
-298 -5 0 -394 111 -567 162 l-70 20 235 229 c129 125 238 228 242 229 4 0 10
-10 13 -22z m1157 -268 c172 -50 317 -91 321 -93 8 -2 -472 -467 -483 -467 -5
0 -160 622 -160 643 0 4 2 7 4 7 3 0 146 -41 318 -90z m-318 -246 c43 -173 76
-317 73 -320 -6 -6 -601 161 -622 174 -7 4 82 98 224 234 130 125 238 228 241
228 3 0 41 -142 84 -316z m-1795 136 c172 -49 315 -91 317 -93 2 -2 -104 -109
-237 -237 -132 -128 -244 -229 -249 -224 -4 5 -40 142 -79 304 -40 162 -74
305 -78 318 -3 12 -1 22 3 22 5 0 150 -40 323 -90z m770 -220 c172 -49 315
-91 316 -92 2 -2 -106 -107 -238 -235 l-242 -232 -77 307 c-69 274 -84 342
-75 342 1 0 143 -40 316 -90z m-312 -257 c44 -181 80 -329 79 -330 -2 -3 -640
180 -646 185 -5 4 470 471 481 472 3 0 41 -147 86 -327z m1090 31 c172 -49
312 -92 310 -96 -1 -4 -110 -111 -242 -237 -193 -185 -241 -227 -247 -213 -7
15 -158 628 -158 639 0 3 6 3 13 1 6 -3 153 -45 324 -94z m-326 -254 c43 -178
78 -324 76 -326 -6 -6 -638 182 -639 190 -1 10 473 468 479 462 2 -2 40 -149
84 -326z m-1028 -85 c169 -48 306 -91 305 -95 -2 -4 -109 -109 -238 -233 -189
-182 -236 -223 -242 -209 -5 9 -40 148 -78 307 -39 160 -73 299 -76 309 -5 13
-2 18 7 14 8 -3 153 -45 322 -93z m526 -779 c-4 -4 -630 171 -636 178 -2 1
106 107 240 235 l242 232 79 -321 c44 -176 77 -322 75 -324z m247 556 c166
-48 302 -90 303 -95 2 -9 -454 -449 -466 -448 -6 0 -162 595 -163 624 0 13 21
8 326 -81z m-259 -635 c2 -2 -107 -111 -242 -242 -135 -131 -247 -236 -250
-234 -3 4 -165 654 -165 664 0 3 652 -184 657 -188z"/>
<path d="M3688 1589 c-17 -9 -18 -37 -18 -357 0 -366 1 -372 45 -372 41 0 45
16 45 184 l0 159 40 37 c73 67 157 75 205 18 25 -29 25 -32 25 -203 0 -189 3
-199 57 -193 l28 3 2 195 c3 186 2 197 -20 234 -31 54 -67 78 -126 84 -73 7
-113 -4 -165 -44 l-46 -35 0 140 c0 128 -2 141 -19 151 -24 12 -31 12 -53 -1z"/>
<path d="M6042 1568 c-7 -7 -12 -27 -12 -45 0 -26 6 -36 25 -45 40 -18 75 3
75 45 0 40 -15 57 -50 57 -14 0 -31 -5 -38 -12z"/>
<path d="M3301 1396 c-84 -84 -88 -106 -21 -106 l40 0 0 -175 c0 -185 6 -213
47 -240 34 -23 111 -29 158 -13 35 11 40 17 40 43 l0 30 -61 0 c-95 1 -94 0
-94 191 l0 164 64 0 c70 0 90 12 84 52 -3 21 -8 23 -75 26 l-73 3 0 49 c0 70
-20 66 -109 -24z"/>
<path d="M4298 1369 c-16 -9 -18 -32 -18 -247 0 -250 2 -262 45 -262 41 0 45
16 45 186 l0 162 39 35 c25 22 54 38 78 42 73 12 82 15 88 35 24 76 -95 82
-172 7 l-33 -31 0 32 c0 43 -35 63 -72 41z"/>
<path d="M4750 1364 c-45 -20 -86 -59 -113 -109 -18 -33 -22 -57 -22 -140 0
-85 3 -106 23 -143 60 -112 227 -153 370 -92 57 24 74 52 48 78 -14 14 -21 15
-63 2 -68 -19 -140 -24 -183 -11 -44 13 -87 56 -99 99 l-10 32 173 0 c210 0
211 0 204 88 -9 128 -102 212 -232 212 -34 -1 -77 -8 -96 -16z m195 -105 c19
-19 37 -49 41 -66 l7 -33 -148 0 -147 0 7 28 c18 74 75 115 153 109 45 -3 59
-9 87 -38z"/>
<path d="M5320 1364 c-45 -20 -86 -59 -113 -109 -18 -33 -22 -57 -22 -140 0
-85 3 -106 23 -143 60 -112 227 -153 370 -92 57 24 74 52 48 78 -14 14 -21 15
-63 2 -68 -19 -140 -24 -183 -11 -44 13 -87 56 -99 99 l-10 32 173 0 c210 0
211 0 204 88 -9 128 -102 212 -232 212 -34 -1 -77 -8 -96 -16z m195 -105 c19
-19 37 -49 41 -66 l7 -33 -148 0 -147 0 7 28 c18 74 75 115 153 109 45 -3 59
-9 87 -38z"/>
<path d="M6047 1362 c-15 -16 -17 -54 -17 -331 l0 -311 -26 -10 c-14 -6 -30
-7 -35 -4 -16 9 -56 -4 -63 -22 -11 -29 12 -52 58 -59 56 -9 109 8 136 42 19
25 20 40 20 359 0 319 -1 334 -19 344 -27 14 -35 13 -54 -8z"/>
<path d="M6341 1358 c-72 -39 -102 -128 -67 -197 21 -40 48 -55 163 -90 55
-17 106 -38 113 -46 18 -21 -2 -62 -36 -75 -37 -15 -115 -12 -164 5 -23 8 -51
15 -61 15 -25 0 -43 -35 -29 -59 27 -52 240 -77 309 -36 54 32 76 69 75 126
-1 87 -39 118 -197 164 -93 27 -106 39 -91 84 15 42 71 56 167 41 85 -14 111
-5 105 34 -5 32 -54 50 -153 54 -80 3 -95 1 -134 -20z"/>
<path d="M5777 962 c-37 -41 -11 -102 43 -102 36 0 60 23 60 59 0 54 -68 82
-103 43z"/>
</g>
</svg>
