<?xml version="1.0" standalone="no"?>
<!DOCTYPE svg PUBLIC "-//W3C//DTD SVG 20010904//EN"
 "http://www.w3.org/TR/2001/REC-SVG-20010904/DTD/svg10.dtd">
<svg version="1.0" xmlns="http://www.w3.org/2000/svg"
 width="259.000000pt" height="194.000000pt" viewBox="0 0 259.000000 194.000000"
 preserveAspectRatio="xMidYMid meet">

<g transform="translate(0.000000,194.000000) scale(0.100000,-0.100000)"
fill="#000000" stroke="none">
<path d="M490 970 l0 -805 805 0 805 -1 0 806 0 806 -805 -1 -805 0 0 -805z
m1258 205 c39 -17 112 -81 112 -100 0 -6 -26 -27 -57 -48 l-58 -36 -30 29
c-67 65 -166 16 -124 -61 5 -11 57 -42 115 -70 124 -59 176 -105 192 -172 16
-62 15 -100 -3 -145 -37 -87 -117 -132 -237 -132 -106 0 -172 26 -233 91 -25
27 -45 54 -43 60 2 5 31 25 65 44 l61 35 16 -26 c58 -88 226 -84 226 5 0 36
-20 53 -115 97 -159 73 -207 128 -208 238 -1 89 42 155 123 190 46 20 151 20
198 1z m-408 -65 l0 -70 -105 0 -105 0 -2 -297 -3 -298 -49 -3 c-27 -2 -60 -1
-73 3 l-23 5 0 295 0 295 -105 0 -105 0 0 70 0 70 285 0 285 0 0 -70z"/>
</g>
</svg>
