<?xml version="1.0" standalone="no"?>
<!DOCTYPE svg PUBLIC "-//W3C//DTD SVG 20010904//EN"
 "http://www.w3.org/TR/2001/REC-SVG-20010904/DTD/svg10.dtd">
<svg version="1.0" xmlns="http://www.w3.org/2000/svg"
 width="4159.000000pt" height="4159.000000pt" viewBox="0 0 4159.000000 4159.000000"
 preserveAspectRatio="xMidYMid meet">

<g transform="translate(0.000000,4159.000000) scale(0.100000,-0.100000)"
fill="#000000" stroke="none">
<path d="M20195 34875 c-258 -7 -515 -16 -570 -19 -55 -4 -197 -13 -315 -21
-324 -22 -815 -69 -932 -90 -18 -3 -85 -12 -148 -20 -232 -28 -636 -99 -910
-159 -743 -163 -1412 -407 -1915 -699 -559 -325 -953 -715 -1185 -1172 -95
-187 -147 -338 -187 -540 -23 -116 -26 -458 -18 -2142 l7 -1463 3429 0 3429 0
-2 -487 -3 -488 -5005 -2 c-5382 -2 -5073 1 -5365 -49 -647 -110 -1220 -363
-1736 -766 -400 -312 -716 -677 -1041 -1200 -143 -232 -327 -617 -450 -943
-64 -172 -158 -452 -158 -473 0 -7 -4 -20 -10 -30 -5 -9 -16 -42 -23 -72 -8
-30 -32 -125 -54 -210 -46 -173 -93 -383 -127 -565 -47 -244 -55 -298 -92
-565 -24 -175 -53 -454 -69 -655 -8 -104 -17 -219 -20 -255 -3 -36 -12 -263
-20 -505 -12 -375 -12 -510 0 -915 8 -261 19 -529 24 -595 6 -66 13 -165 16
-220 6 -98 39 -460 50 -540 3 -22 12 -92 19 -155 72 -584 192 -1165 351 -1695
15 -49 30 -99 33 -110 3 -11 8 -24 12 -30 4 -5 11 -26 15 -45 4 -19 13 -48 20
-65 7 -16 36 -95 65 -175 321 -894 844 -1669 1450 -2152 41 -33 84 -66 94 -75
46 -37 239 -165 330 -218 347 -203 661 -319 1086 -402 l135 -26 1342 -4 1342
-4 4 1843 c3 1811 4 1846 25 2008 85 659 237 1172 492 1657 524 995 1387 1601
2565 1802 112 19 174 27 415 53 63 7 1337 13 3825 18 2743 5 3756 10 3830 18
173 21 435 65 580 99 1445 334 2380 1178 2706 2443 60 230 103 509 118 760 6
96 13 201 16 233 3 32 5 1554 5 3382 0 2963 -1 3334 -15 3431 -87 603 -354
1127 -809 1587 -179 181 -414 372 -611 499 -154 99 -216 138 -220 138 -2 0
-48 26 -102 57 -104 60 -375 193 -483 237 -36 15 -74 31 -85 36 -276 126 -879
312 -1325 410 -248 54 -215 48 -455 91 -285 52 -677 105 -990 134 -88 8 -173
17 -190 20 -16 2 -140 11 -275 20 -135 8 -261 17 -280 20 -19 2 -217 9 -440
15 -223 5 -477 11 -565 14 -88 2 -371 -2 -630 -9z m-2934 -2184 c187 -51 392
-157 499 -258 19 -18 38 -33 42 -33 11 0 146 -161 192 -229 79 -118 141 -260
178 -407 30 -121 33 -418 5 -534 -62 -254 -162 -438 -335 -613 -165 -168 -338
-268 -587 -339 -72 -21 -101 -23 -295 -23 -194 0 -223 2 -295 23 -253 73 -425
173 -596 349 -121 125 -179 214 -270 418 -44 98 -79 298 -79 448 0 445 251
864 650 1084 105 58 266 113 400 137 14 2 113 3 220 1 159 -2 209 -7 271 -24z"/>
</g>
</svg>
